<svg xmlns="http://www.w3.org/2000/svg" width="21" height="21" viewBox="0 0 21 21">
  <metadata><?xpacket begin="﻿" id="W5M0MpCehiHzreSzNTczkc9d"?>
<x:xmpmeta xmlns:x="adobe:ns:meta/" x:xmptk="Adobe XMP Core 5.6-c142 79.160924, 2017/07/13-01:06:39        ">
   <rdf:RDF xmlns:rdf="http://www.w3.org/1999/02/22-rdf-syntax-ns#">
      <rdf:Description rdf:about=""/>
   </rdf:RDF>
</x:xmpmeta>
                                                                                                    
                                                                                                    
                                                                                                    
                                                                                                    
                                                                                                    
                                                                                                    
                                                                                                    
                                                                                                    
                                                                                                    
                                                                                                    
                                                                                                    
                                                                                                    
                                                                                                    
                                                                                                    
                                                                                                    
                                                                                                    
                                                                                                    
                                                                                                    
                                                                                                    
                                                                                                    
                           
<?xpacket end="w"?></metadata>
<defs>
    <style>
      .cls-1 {
        fill: #3b312e;
        fill-rule: evenodd;
      }
    </style>
  </defs>
  <path id="phone" class="cls-1" d="M1265.96,75.272a2.572,2.572,0,0,0-1.14-.791c-0.19-.109-0.45-0.258-0.8-0.447s-0.67-.363-0.95-0.522-0.55-.313-0.8-0.462c-0.04-.03-0.16-0.117-0.37-0.261a4.568,4.568,0,0,0-.53-0.321,0.974,0.974,0,0,0-.43-0.1,1.255,1.255,0,0,0-.74.425,7.239,7.239,0,0,0-.82.925,8.9,8.9,0,0,1-.79.925,1.143,1.143,0,0,1-.69.425,0.964,0.964,0,0,1-.33-0.074,2.935,2.935,0,0,1-.31-0.127c-0.07-.035-0.19-0.1-0.36-0.209s-0.26-.162-0.28-0.172a15.863,15.863,0,0,1-3.51-2.6,15.6,15.6,0,0,1-2.59-3.505c-0.01-.02-0.07-0.115-0.17-0.284a2.912,2.912,0,0,1-.21-0.358,2.243,2.243,0,0,1-.13-0.306,0.977,0.977,0,0,1-.07-0.336,1.139,1.139,0,0,1,.42-0.686,8.036,8.036,0,0,1,.93-0.79,7.218,7.218,0,0,0,.92-0.82,1.27,1.27,0,0,0,.43-0.746,0.978,0.978,0,0,0-.11-0.425,3.6,3.6,0,0,0-.32-0.53c-0.14-.209-0.23-0.333-0.26-0.373-0.15-.248-0.3-0.514-0.46-0.8s-0.34-.6-0.52-0.947-0.34-.617-0.45-0.805a2.562,2.562,0,0,0-.79-1.133,0.867,0.867,0,0,0-.32-0.045,4.936,4.936,0,0,0-1.05.15,5.992,5.992,0,0,0-1.02.313,4,4,0,0,0-1.58,1.82,5.752,5.752,0,0,0-.76,2.775,6.658,6.658,0,0,0,.05.783,5.755,5.755,0,0,0,.19.858q0.135,0.477.21,0.709c0.06,0.154.16,0.43,0.31,0.828s0.24,0.642.27,0.731a13.486,13.486,0,0,0,1.24,2.611,21.733,21.733,0,0,0,3.21,3.946,21.987,21.987,0,0,0,3.95,3.215,13.215,13.215,0,0,0,2.61,1.238c0.09,0.03.33,0.119,0.73,0.269s0.67,0.251.83,0.306,0.39,0.127.7,0.217a6.733,6.733,0,0,0,.86.187,6,6,0,0,0,.79.052,5.8,5.8,0,0,0,2.77-.761,4.031,4.031,0,0,0,1.82-1.582,5.95,5.95,0,0,0,.31-1.022,4.9,4.9,0,0,0,.15-1.052A0.855,0.855,0,0,0,1265.96,75.272Z" transform="translate(-1245 -59)"/>
</svg>
