<svg xmlns="http://www.w3.org/2000/svg" width="10" height="16" viewBox="0 0 10 16">
  <metadata><?xpacket begin="﻿" id="W5M0MpCehiHzreSzNTczkc9d"?>
<x:xmpmeta xmlns:x="adobe:ns:meta/" x:xmptk="Adobe XMP Core 5.6-c142 79.160924, 2017/07/13-01:06:39        ">
   <rdf:RDF xmlns:rdf="http://www.w3.org/1999/02/22-rdf-syntax-ns#">
      <rdf:Description rdf:about=""/>
   </rdf:RDF>
</x:xmpmeta>
                                                                                                    
                                                                                                    
                                                                                                    
                                                                                                    
                                                                                                    
                                                                                                    
                                                                                                    
                                                                                                    
                                                                                                    
                                                                                                    
                                                                                                    
                                                                                                    
                                                                                                    
                                                                                                    
                                                                                                    
                                                                                                    
                                                                                                    
                                                                                                    
                                                                                                    
                                                                                                    
                           
<?xpacket end="w"?></metadata>
<defs>
    <style>
      .cls-1 {
        fill: #3b312e;
        fill-rule: evenodd;
      }
    </style>
  </defs>
  <path id="ok" class="cls-1" d="M1035.92,443.961a1.047,1.047,0,1,1-1.07,1.047A1.061,1.061,0,0,1,1035.92,443.961Zm-7.84,0a1.048,1.048,0,1,1-1.08,1.047A1.061,1.061,0,0,1,1028.08,443.961Zm3.48,2.852,1.52,1.478-3.51,3.412-1.52-1.479Zm-2.74,3.1a1.046,1.046,0,1,1-1.08,1.046A1.059,1.059,0,0,1,1028.82,449.909Zm3.58-3.1-1.52,1.478,3.51,3.412,1.52-1.479Zm2.74,3.1a1.046,1.046,0,1,0,1.08,1.046A1.059,1.059,0,0,0,1035.14,449.909Zm-6.65-5.3s-0.15-.684.16-0.5a6.786,6.786,0,0,0,3.35,1.156,7.058,7.058,0,0,0,3.37-1.161c0.35-.213.3,0.433,0.3,0.433s0.42-.478.62-0.1a1.412,1.412,0,0,1,.01,1.112s0.44,0.182.18,0.341a9.326,9.326,0,0,1-4.47,1.454,9.446,9.446,0,0,1-4.47-1.443c-0.27-.165.37-0.352,0.37-0.352ZM1032,436a4.023,4.023,0,1,1-4.14,4.021A4.079,4.079,0,0,1,1032,436Zm0,1.927a2.1,2.1,0,1,1-2.15,2.094A2.129,2.129,0,0,1,1032,437.929Z" transform="translate(-1027 -436)"/>
</svg>
