<svg xmlns="http://www.w3.org/2000/svg" width="12.281" height="15.219" viewBox="0 0 12.281 15.219">
  <metadata><?xpacket begin="﻿" id="W5M0MpCehiHzreSzNTczkc9d"?>
<x:xmpmeta xmlns:x="adobe:ns:meta/" x:xmptk="Adobe XMP Core 5.6-c142 79.160924, 2017/07/13-01:06:39        ">
   <rdf:RDF xmlns:rdf="http://www.w3.org/1999/02/22-rdf-syntax-ns#">
      <rdf:Description rdf:about=""/>
   </rdf:RDF>
</x:xmpmeta>
                                                                                                    
                                                                                                    
                                                                                                    
                                                                                                    
                                                                                                    
                                                                                                    
                                                                                                    
                                                                                                    
                                                                                                    
                                                                                                    
                                                                                                    
                                                                                                    
                                                                                                    
                                                                                                    
                                                                                                    
                                                                                                    
                                                                                                    
                                                                                                    
                                                                                                    
                                                                                                    
                           
<?xpacket end="w"?></metadata>
<defs>
    <style>
      .cls-1 {
        fill: #3b312e;
        fill-rule: evenodd;
      }
    </style>
  </defs>
  <path id="В" class="cls-1" d="M986.411,444.966a4.187,4.187,0,0,0-2.276-1.21v-0.082a3.291,3.291,0,0,0,1.55-1.276,3.557,3.557,0,0,0,.562-1.98,3.441,3.441,0,0,0-.407-1.694,2.947,2.947,0,0,0-1.231-1.175,4.948,4.948,0,0,0-1.633-.535,19.041,19.041,0,0,0-2.559-.128H975v15.2h6.139a10.081,10.081,0,0,0,2.631-.286,5.4,5.4,0,0,0,1.9-.959,4.1,4.1,0,0,0,1.164-1.419,4.372,4.372,0,0,0,.432-1.991A3.463,3.463,0,0,0,986.411,444.966Zm-4.254-2.9a1.235,1.235,0,0,1-.638.592,2.255,2.255,0,0,1-.819.214q-0.4.021-1.385,0.02H978.83v-3.215H979.1q1.031,0,1.55.015a2.46,2.46,0,0,1,.9.179,1.146,1.146,0,0,1,.592.561,1.713,1.713,0,0,1,.191.756A2.066,2.066,0,0,1,982.157,442.062Zm0.9,6.283a1.533,1.533,0,0,1-.768.658,3.281,3.281,0,0,1-1.174.276q-0.577.019-2.081,0.02H978.83v-3.807h0.711q1.03,0,1.643.015a2.992,2.992,0,0,1,.963.148,1.747,1.747,0,0,1,.865.6,1.85,1.85,0,0,1,.289,1.1A1.993,1.993,0,0,1,983.059,448.345Z" transform="translate(-975 -436.875)"/>
</svg>
