<svg xmlns="http://www.w3.org/2000/svg" width="46" height="46" viewBox="0 0 46 46">
  <metadata><?xpacket begin="﻿" id="W5M0MpCehiHzreSzNTczkc9d"?>
<x:xmpmeta xmlns:x="adobe:ns:meta/" x:xmptk="Adobe XMP Core 5.6-c142 79.160924, 2017/07/13-01:06:39        ">
   <rdf:RDF xmlns:rdf="http://www.w3.org/1999/02/22-rdf-syntax-ns#">
      <rdf:Description rdf:about=""/>
   </rdf:RDF>
</x:xmpmeta>
                                                                                                    
                                                                                                    
                                                                                                    
                                                                                                    
                                                                                                    
                                                                                                    
                                                                                                    
                                                                                                    
                                                                                                    
                                                                                                    
                                                                                                    
                                                                                                    
                                                                                                    
                                                                                                    
                                                                                                    
                                                                                                    
                                                                                                    
                                                                                                    
                                                                                                    
                                                                                                    
                           
<?xpacket end="w"?></metadata>
<defs>
    <style>
      .cls-1 {
        fill: #3b312e;
        fill-rule: evenodd;
      }
    </style>
  </defs>
  <path id="Собственное_производство" data-name="Собственное  производство" class="cls-1" d="M851.549,1406.56a6.575,6.575,0,1,0,0-13.15,0.735,0.735,0,1,0,0,1.47,5.105,5.105,0,1,1-5.137,5.11,0.739,0.739,0,1,0-1.477,0A6.6,6.6,0,0,0,851.549,1406.56Zm0-2.92a0.735,0.735,0,1,0,0-1.47,2.185,2.185,0,1,1,2.2-2.18,0.739,0.739,0,0,0,1.477,0A3.678,3.678,0,1,0,851.549,1403.64Zm11.746-2.92h15.163a0.735,0.735,0,1,0,0-1.47H863.3A0.735,0.735,0,1,0,863.3,1400.72Zm-18.36,16.79a6.614,6.614,0,1,0,6.614-6.58,0.735,0.735,0,1,0,0,1.47,5.105,5.105,0,1,1-5.137,5.11A0.739,0.739,0,1,0,844.935,1417.51Zm6.614,3.65a0.735,0.735,0,1,0,0-1.47,2.185,2.185,0,1,1,2.2-2.18,0.739,0.739,0,0,0,1.477,0A3.678,3.678,0,1,0,851.549,1421.16Zm30.582-12.41a9.489,9.489,0,0,0-3.68-18.26h-7.4l-8.565-8.51c-0.015-.02-0.031-0.03-0.047-0.05a3.383,3.383,0,0,0-2.325-.93,3.349,3.349,0,0,0-3.353,3.33,3.3,3.3,0,0,0,.939,2.31,0.2,0.2,0,0,0,.043.05l3.822,3.8H851.549a9.489,9.489,0,0,0-3.681,18.26,9.483,9.483,0,0,0,3.681,18.25h26.9A9.483,9.483,0,0,0,882.131,1408.75Zm3.494,12.43H862.1a0.735,0.735,0,1,0,0,1.47h22.544a8.079,8.079,0,0,1-6.194,2.88H856.644a9.484,9.484,0,0,0,4.426-7.29h6.624a0.735,0.735,0,1,0,0-1.47H861.07a9.484,9.484,0,0,0-4.426-7.29h21.807a8.059,8.059,0,0,1,8.072,8.03A7.94,7.94,0,0,1,885.625,1421.18Zm-25.514-38.71a1.865,1.865,0,1,1-1.877,1.86A1.868,1.868,0,0,1,860.111,1382.47Zm3.234,9.49h3.246a0.735,0.735,0,1,0,0-1.47H863.65l-2.9-2.88a3.359,3.359,0,0,0,2.655-2.64l6.816,6.77a0.736,0.736,0,0,0,.522.22h7.709a8.065,8.065,0,0,1,8.037,7.29h-5.094a0.735,0.735,0,1,0,0,1.47h5.094a8.065,8.065,0,0,1-8.037,7.29H856.644a9.584,9.584,0,0,0,2.93-2.88h11.069a0.735,0.735,0,1,0,0-1.47H860.355a9.457,9.457,0,0,0-3.711-11.7h6.7Zm-11.8,0a8.025,8.025,0,1,1-8.073,8.03A8.059,8.059,0,0,1,851.549,1391.96Zm8.072,25.55a8.073,8.073,0,1,1-8.072-8.03A8.054,8.054,0,0,1,859.621,1417.51Zm10.27,0a0.737,0.737,0,0,0,.739.73h13.7a0.735,0.735,0,1,0,0-1.47h-13.7A0.739,0.739,0,0,0,869.891,1417.51Z" transform="translate(-842 -1381)"/>
</svg>
