<svg xmlns="http://www.w3.org/2000/svg" width="46" height="45" viewBox="0 0 46 45">
  <metadata><?xpacket begin="﻿" id="W5M0MpCehiHzreSzNTczkc9d"?>
<x:xmpmeta xmlns:x="adobe:ns:meta/" x:xmptk="Adobe XMP Core 5.6-c142 79.160924, 2017/07/13-01:06:39        ">
   <rdf:RDF xmlns:rdf="http://www.w3.org/1999/02/22-rdf-syntax-ns#">
      <rdf:Description rdf:about=""/>
   </rdf:RDF>
</x:xmpmeta>                         
<?xpacket end="w"?></metadata>
<defs>
    <style>
      .cls-1 {
        fill: #3b312e;
        fill-rule: evenodd;
      }
    </style>
  </defs>
  <path id="только_северный_плотный_лес" data-name="только северный  плотный лес" class="cls-1" d="M1438.12,1386.2a4.755,4.755,0,0,0-4.67-2.94,27.625,27.625,0,0,1-9.03-2.26,4.09,4.09,0,0,0-3.65,2.26,2.62,2.62,0,0,0-.28-0.01,4.812,4.812,0,0,0-4.77,4.82,4.173,4.173,0,0,0-2.04,5.39,5.046,5.046,0,0,0,.07,7.58,3.883,3.883,0,0,0-.14,1.07,4.143,4.143,0,0,0,2.5,3.83c0,0.1-.01.2-0.01,0.31a4.677,4.677,0,0,0,4.12,4.69,4.86,4.86,0,0,0,2.88,2.13v4.94a0.745,0.745,0,1,0,1.49,0v-12.28h0a0.8,0.8,0,0,0-.13-0.43l-3.29-4.81a0.739,0.739,0,0,0-1.03-.19,0.764,0.764,0,0,0-.19,1.05l3.15,4.61v5.54a3.406,3.406,0,0,1-1.78-1.63,0.756,0.756,0,0,0-.64-0.4,3.186,3.186,0,0,1-3.09-3.22,2.989,2.989,0,0,1,.07-0.67,0.76,0.76,0,0,0-.56-0.89,2.629,2.629,0,0,1-2.01-2.58,2.733,2.733,0,0,1,.21-1.05,0.742,0.742,0,0,0-.27-0.92,3.535,3.535,0,0,1,0-5.85,0.753,0.753,0,0,0,.22-1.03,2.6,2.6,0,0,1-.42-1.43,2.656,2.656,0,0,1,1.87-2.54,0.748,0.748,0,0,0,.53-0.81,2.748,2.748,0,0,1-.02-0.4,3.312,3.312,0,0,1,3.28-3.33,3.153,3.153,0,0,1,.61.06,0.739,0.739,0,0,0,.84-0.5,2.608,2.608,0,0,1,2.48-1.81,2.573,2.573,0,0,1,2.09,1.07,0.74,0.74,0,0,0,1.19,0,2.6,2.6,0,0,1,4.58.74,0.734,0.734,0,0,0,.84.5,3.268,3.268,0,0,1,3.63,1.98,0.75,0.75,0,0,0,.98.4A0.769,0.769,0,0,0,1438.12,1386.2Zm-14.27,33.56a0.749,0.749,0,0,0-.75.75v4.74a0.745,0.745,0,1,0,1.49,0v-4.74A0.747,0.747,0,0,0,1423.85,1419.76Zm7.4-20.2a0.742,0.742,0,0,0-1.05,0l-1.57,1.59a1.53,1.53,0,0,1-2.27-.11l-2.63-3.22a0.735,0.735,0,0,0-1.04-.11,0.758,0.758,0,0,0-.1,1.06l2.63,3.23a3,3,0,0,0,2.18,1.1,0.757,0.757,0,0,0,.15.01,3.015,3.015,0,0,0,2.13-.9l1.57-1.58A0.767,0.767,0,0,0,1431.25,1399.56Zm26.55,19.19-7.99-8.85h5.89a0.728,0.728,0,0,0,.68-0.45,0.753,0.753,0,0,0-.13-0.81l-7.38-8.16h5.36a0.744,0.744,0,0,0,.68-0.45,0.753,0.753,0,0,0-.13-0.81l-4.99-5.52a0.735,0.735,0,0,0-1.05-.05,0.755,0.755,0,0,0-.04,1.06l3.85,4.26h-5.36a0.744,0.744,0,0,0-.68.45,0.753,0.753,0,0,0,.13.81l7.38,8.17H1442.7a0.75,0.75,0,0,0,0,1.5h5.1l7.77,8.6h-22.94l2.46-2.72a0.756,0.756,0,0,0-.05-1.06,0.735,0.735,0,0,0-1.05.05l-2.88,3.19v-4.89a4.828,4.828,0,0,0,2.39-1.47,0.756,0.756,0,0,0-.05-1.06,0.735,0.735,0,0,0-1.05.06,3.5,3.5,0,0,1-1.29.9v-5.46l1.78-1.8a0.754,0.754,0,0,0,0-1.06,0.725,0.725,0,0,0-1.05,0l-1.99,2.02a0.749,0.749,0,0,0-.22.53v19.52a0.74,0.74,0,1,0,1.48,0v-5.24h8.97v5.24a0.74,0.74,0,1,0,1.48,0v-5.24h5.08v5.24a0.74,0.74,0,1,0,1.48,0v-5.24h9.14a0.73,0.73,0,0,0,.67-0.45A0.75,0.75,0,0,0,1457.8,1418.75Zm-6.13-29.39-7.02-7.77a0.75,0.75,0,0,0-1.1,0l-7.02,7.77a0.753,0.753,0,0,0-.13.81,0.728,0.728,0,0,0,.68.45h4.11l-7.77,8.6a0.753,0.753,0,0,0-.13.81,0.744,0.744,0,0,0,.68.45h5.36l-7.38,8.16a0.753,0.753,0,0,0-.13.81,0.728,0.728,0,0,0,.68.45h5.89l-2.79,3.09a0.755,0.755,0,0,0,.04,1.06,0.728,0.728,0,0,0,.5.2,0.735,0.735,0,0,0,.55-0.24l3.93-4.35a0.753,0.753,0,0,0,.13-0.81,0.73,0.73,0,0,0-.67-0.45h-5.9l7.16-7.92h3.3a0.755,0.755,0,0,0,0-1.51h-8.99l7.77-8.59a0.753,0.753,0,0,0,.13-0.81,0.744,0.744,0,0,0-.68-0.45h-4.11l5.34-5.91,5.34,5.91h-4.11a0.744,0.744,0,0,0-.68.45,0.753,0.753,0,0,0,.13.81l2.4,2.65a0.734,0.734,0,0,0,1.05.05,0.755,0.755,0,0,0,.04-1.06l-1.26-1.4h4.11a0.728,0.728,0,0,0,.68-0.45A0.753,0.753,0,0,0,1451.67,1389.36Z" transform="translate(-1412 -1381)"/>
</svg>
