<svg xmlns="http://www.w3.org/2000/svg" width="43" height="48" viewBox="0 0 43 48">
  <metadata><?xpacket begin="﻿" id="W5M0MpCehiHzreSzNTczkc9d"?>
<x:xmpmeta xmlns:x="adobe:ns:meta/" x:xmptk="Adobe XMP Core 5.6-c142 79.160924, 2017/07/13-01:06:39        ">
   <rdf:RDF xmlns:rdf="http://www.w3.org/1999/02/22-rdf-syntax-ns#">
      <rdf:Description rdf:about=""/>
   </rdf:RDF>
</x:xmpmeta>
<?xpacket end="w"?></metadata>
<defs>
    <style>
      .cls-1 {
        fill: #3b312e;
        fill-rule: evenodd;
      }
    </style>
  </defs>
  <path id="Выставочная_площадка" data-name="Выставочная  площадка" class="cls-1" d="M696.829,1398.21l-6.223-5.66v-7.81h0.7a0.572,0.572,0,0,0,.58-0.57v-4.59a0.578,0.578,0,0,0-.58-0.57h-7.568a0.578,0.578,0,0,0-.58.57v4.59a0.572,0.572,0,0,0,.58.57h0.7v2.19l-8.538-7.77a0.587,0.587,0,0,0-.784,0h0l-20.933,19.05a0.569,0.569,0,0,0-.146.63,0.59,0.59,0,0,0,.539.36H657.8a3.309,3.309,0,0,0,.658,4.99,8.933,8.933,0,0,1-1.508,8.36,3.316,3.316,0,0,1,0,5.56,3.326,3.326,0,0,1,0,5.57,3.378,3.378,0,0,0,2.975,3.33h31.148a3.378,3.378,0,0,0,2.975-3.33,3.326,3.326,0,0,1,0-5.57,3.316,3.316,0,0,1,0-5.56,3.326,3.326,0,0,1,0-5.57,3.326,3.326,0,0,1,0-5.57,3.3,3.3,0,0,0-.85-2.21h3.234a0.59,0.59,0,0,0,.539-0.36A0.569,0.569,0,0,0,696.829,1398.21Zm-12.514-18.06h6.41v3.45h-6.41v-3.45Zm1.278,4.59h3.854v6.75l-3.854-3.51v-3.24Zm-27.48,16.67a2.248,2.248,0,1,1,2.248,2.21A2.231,2.231,0,0,1,658.113,1401.41Zm21.612-11.78,2.59,2.27H668.692l2.589-2.27h8.444Zm-7.146-1.15,2.924-2.57,2.924,2.57h-5.848Zm11.034,4.56,2.589,2.28H664.8l2.589-2.28h16.22Zm3.887,3.42,2.025,1.78a3.553,3.553,0,0,0-.936.5H662.417a3.522,3.522,0,0,0-.936-0.5l2.025-1.78H687.5Zm-0.058,22.79H663.563a3.27,3.27,0,0,0,.2-1.14,3.214,3.214,0,0,0-.2-1.13h5.376a0.58,0.58,0,0,0,.563.44h12a0.58,0.58,0,0,0,.563-0.44h5.375a3.237,3.237,0,0,0-.2,1.13A3.293,3.293,0,0,0,687.442,1419.25Zm-23.686-12.53h5.167V1409h-5.845a3.317,3.317,0,0,0,.689-2.02C663.767,1406.89,663.763,1406.81,663.756,1406.72Zm5.167,3.42v2.28h-5.16a3.308,3.308,0,0,0-1.034-2.28h6.194Zm-5.314,3.42h5.314v2.27h-6.067a4.107,4.107,0,0,0-.6-0.5A3.369,3.369,0,0,0,663.609,1413.56Zm11.315-2.05v4.76h-4.842v-4.76h4.842Zm-4.842-1.15v-4.76h4.842v4.76h-4.842Zm10.843,1.15v4.76h-4.842v-4.76h4.842Zm-4.842-1.15v-4.76h4.842v4.76h-4.842Zm6,5.47v-2.27H687.4a3.369,3.369,0,0,0,1.35,1.77,3.639,3.639,0,0,0-.6.5h-6.066Zm5.843-6.83h-5.843v-2.28h5.166c-0.007.09-.011,0.17-0.011,0.26A3.322,3.322,0,0,0,687.927,1409Zm0.35,1.14a3.308,3.308,0,0,0-1.034,2.28h-5.159v-2.28h6.193Zm-0.726-4.56h-5.467v-0.55a0.58,0.58,0,0,0-.58-0.58h-12a0.58,0.58,0,0,0-.579.58v0.55h-5.468a3.371,3.371,0,0,0-1.2-1.38,3.493,3.493,0,0,0,.914-0.9h24.661a3.474,3.474,0,0,0,.913.9A3.371,3.371,0,0,0,687.551,1405.58Zm-0.225-3.42H663.68a3.3,3.3,0,0,0-.288-2.28h24.223A3.293,3.293,0,0,0,687.326,1402.16Zm-29.213,4.82a2.248,2.248,0,1,1,2.248,2.21A2.231,2.231,0,0,1,658.113,1406.98Zm0,5.57a2.248,2.248,0,1,1,2.248,2.21A2.24,2.24,0,0,1,658.113,1412.55Zm0,5.56a2.248,2.248,0,1,1,2.248,2.22A2.231,2.231,0,0,1,658.113,1418.11Zm2.248,7.79a2.215,2.215,0,1,1,2.247-2.22A2.24,2.24,0,0,1,660.361,1425.9Zm2.556,0a3.345,3.345,0,0,0,.847-2.09h23.478a3.35,3.35,0,0,0,.846,2.09H662.917Zm24.48-3.23H663.609a3.369,3.369,0,0,0-1.35-1.77,3.655,3.655,0,0,0,.6-0.51H688.15a3.7,3.7,0,0,0,.6.51A3.369,3.369,0,0,0,687.4,1422.67Zm5.5,1.01a2.248,2.248,0,1,1-2.248-2.21A2.239,2.239,0,0,1,692.893,1423.68Zm0-5.57a2.248,2.248,0,1,1-2.248-2.21A2.239,2.239,0,0,1,692.893,1418.11Zm0-5.56a2.248,2.248,0,1,1-2.248-2.22A2.231,2.231,0,0,1,692.893,1412.55Zm0-5.57a2.248,2.248,0,1,1-2.248-2.21A2.231,2.231,0,0,1,692.893,1406.98Zm-2.248-3.36a2.21,2.21,0,1,1,2.248-2.21A2.23,2.23,0,0,1,690.645,1403.62Zm0.408-5.56-15.164-13.34h0a0.591,0.591,0,0,0-.77,0l-15.163,13.34h-3.9l19.451-17.7,19.452,17.7h-3.9Z" transform="translate(-654 -1379)"/>
</svg>
