<svg xmlns="http://www.w3.org/2000/svg" width="46" height="46" viewBox="0 0 46 46">
  <metadata><?xpacket begin="﻿" id="W5M0MpCehiHzreSzNTczkc9d"?>
<x:xmpmeta xmlns:x="adobe:ns:meta/" x:xmptk="Adobe XMP Core 5.6-c142 79.160924, 2017/07/13-01:06:39        ">
   <rdf:RDF xmlns:rdf="http://www.w3.org/1999/02/22-rdf-syntax-ns#">
      <rdf:Description rdf:about=""/>
   </rdf:RDF>
</x:xmpmeta>                   
<?xpacket end="w"?></metadata>
<defs>
    <style>
      .cls-1 {
        fill: #3b312e;
        fill-rule: evenodd;
      }
    </style>
  </defs>
  <path id="Собственный_офис_в_г._Москва" data-name="Собственный офис  в г. Москва" class="cls-1" d="M494.975,1423.93H473.506a0.771,0.771,0,0,0-.766.77v1.53a0.767,0.767,0,1,0,1.533,0v-0.76h20.7A0.77,0.77,0,0,0,494.975,1423.93Zm-16.1-23.76a0.766,0.766,0,0,0,.767.77h3.067a0.766,0.766,0,0,0,.767-0.77v-4.6a0.764,0.764,0,0,0-.767-0.76H479.64a0.763,0.763,0,0,0-.766.76v4.6h0Zm1.534-3.83h1.533v3.07h-1.533v-3.07Zm-8.434-6.13h-9.2a0.765,0.765,0,0,0-.766.77v15.32a0.767,0.767,0,1,0,1.533,0v-14.56h8.434A0.765,0.765,0,1,0,471.973,1390.21Zm26.835,28.36a0.764,0.764,0,0,0,.767.76h3.067a0.763,0.763,0,0,0,.766-0.76v-4.6a0.771,0.771,0,0,0-.766-0.77h-3.067a0.772,0.772,0,0,0-.767.77v4.6Zm1.534-3.83h1.533v3.06h-1.533v-3.06Zm-34.5-6.14c-3.79,0-3.833,9.87-3.833,9.97a3.829,3.829,0,0,0,3.067,3.75v3.91a0.767,0.767,0,1,0,1.533,0v-3.91a3.83,3.83,0,0,0,3.067-3.75C469.673,1418.47,469.629,1408.6,465.839,1408.6Zm0,12.27a2.3,2.3,0,0,1-2.3-2.3c0-3.82,1.026-8.43,2.3-8.43s2.3,4.61,2.3,8.43A2.3,2.3,0,0,1,465.839,1420.87Zm4.6-16.86h-3.067a0.763,0.763,0,0,0-.767.76v1.53a0.767,0.767,0,1,0,1.533,0v-0.76h1.534v3.83a0.767,0.767,0,1,0,1.533,0v-4.6A0.763,0.763,0,0,0,470.44,1404.01Zm29.135-3.07h3.067a0.765,0.765,0,0,0,.766-0.77v-4.6a0.763,0.763,0,0,0-.766-0.76h-3.067a0.764,0.764,0,0,0-.767.76v4.6A0.766,0.766,0,0,0,499.575,1400.94Zm0.767-4.6h1.533v3.07h-1.533v-3.07Zm-29.9-1.53h-3.067a0.763,0.763,0,0,0-.767.76v4.6a0.765,0.765,0,0,0,.767.77h3.067a0.765,0.765,0,0,0,.766-0.77v-4.6A0.763,0.763,0,0,0,470.44,1394.81Zm-0.767,4.6h-1.534v-3.07h1.534v3.07h0Zm16.868,0.76a0.765,0.765,0,0,0,.766.77h3.067a0.765,0.765,0,0,0,.767-0.77v-4.6a0.763,0.763,0,0,0-.767-0.76h-3.067a0.763,0.763,0,0,0-.766.76v4.6h0Zm1.533-3.83h1.534v3.07h-1.534v-3.07h0Zm19.168-6.13h-9.2a0.765,0.765,0,1,0,0,1.53h8.434v30.8a2.179,2.179,0,0,0-.767-0.14,2.574,2.574,0,0,0-.394.03,3.07,3.07,0,0,0-5.346,0,2.574,2.574,0,0,0-.394-0.03,2.3,2.3,0,0,0,0,4.6h6.134a2.3,2.3,0,0,0,2.3-2.3v-33.72A0.765,0.765,0,0,0,507.242,1390.21Zm-1.533,35.26h-6.134a0.77,0.77,0,0,1,0-1.54,0.706,0.706,0,0,1,.415.13,0.764,0.764,0,0,0,.7.06,0.752,0.752,0,0,0,.459-0.53,1.527,1.527,0,0,1,2.978,0,0.753,0.753,0,0,0,.458.53,0.764,0.764,0,0,0,.7-0.06,0.782,0.782,0,0,1,1.183.64A0.774,0.774,0,0,1,505.709,1425.47Zm-18.4-33.73h3.067a0.763,0.763,0,0,0,.767-0.76v-4.6a0.765,0.765,0,0,0-.767-0.77h-3.067a0.765,0.765,0,0,0-.766.77v4.6A0.763,0.763,0,0,0,487.307,1391.74Zm0.767-4.6h1.534v3.07h-1.534v-3.07h0Zm-1.533,22.23a0.771,0.771,0,0,0,.766.77h3.067a0.772,0.772,0,0,0,.767-0.77v-4.6a0.763,0.763,0,0,0-.767-0.76h-3.067a0.763,0.763,0,0,0-.766.76v4.6h0Zm1.533-3.83h1.534v3.06h-1.534v-3.06h0Zm-8.434-13.8h3.067a0.764,0.764,0,0,0,.767-0.76v-4.6a0.766,0.766,0,0,0-.767-0.77H479.64a0.765,0.765,0,0,0-.766.77v4.6A0.762,0.762,0,0,0,479.64,1391.74Zm0.767-4.6h1.533v3.07h-1.533v-3.07Zm4.056,30.88a0.828,0.828,0,0,0-.223.55,0.784,0.784,0,0,0,.223.54,0.784,0.784,0,0,0,1.089,0,0.783,0.783,0,0,0,.222-0.54,0.827,0.827,0,0,0-.222-0.55A0.811,0.811,0,0,0,484.463,1418.02Zm-5.59-8.65a0.772,0.772,0,0,0,.767.77h3.067a0.772,0.772,0,0,0,.767-0.77v-4.6a0.764,0.764,0,0,0-.767-0.76H479.64a0.763,0.763,0,0,0-.766.76v4.6h0Zm1.534-3.83h1.533v3.06h-1.533v-3.06Zm-3.067,8.43a0.772,0.772,0,0,0,.767.77h2.3v6.89a0.767,0.767,0,1,0,1.533,0v-6.89h6.134v6.89a0.767,0.767,0,1,0,1.534,0v-6.89h2.3a0.77,0.77,0,0,0,0-1.54h-13.8A0.772,0.772,0,0,0,477.34,1413.97Zm21.468-4.6a0.772,0.772,0,0,0,.767.77h3.067a0.771,0.771,0,0,0,.766-0.77v-4.6a0.763,0.763,0,0,0-.766-0.76h-3.067a0.764,0.764,0,0,0-.767.76v4.6Zm1.534-3.83h1.533v3.06h-1.533v-3.06Zm-5.367-24.53H475.04a0.772,0.772,0,0,0-.767.77v39.85a0.767,0.767,0,1,0,1.534,0v-39.08h18.4v39.08a0.767,0.767,0,1,0,1.533,0v-39.85A0.771,0.771,0,0,0,494.975,1381.01Z" transform="translate(-462 -1381)"/>
</svg>
