<svg xmlns="http://www.w3.org/2000/svg" width="53" height="42" viewBox="0 0 53 42">
  <metadata><?xpacket begin="﻿" id="W5M0MpCehiHzreSzNTczkc9d"?>
<x:xmpmeta xmlns:x="adobe:ns:meta/" x:xmptk="Adobe XMP Core 5.6-c142 79.160924, 2017/07/13-01:06:39        ">
   <rdf:RDF xmlns:rdf="http://www.w3.org/1999/02/22-rdf-syntax-ns#">
      <rdf:Description rdf:about=""/>
   </rdf:RDF>
</x:xmpmeta>                     
<?xpacket end="w"?></metadata>
<defs>
    <style>
      .cls-1 {
        fill: #3b312e;
        fill-rule: evenodd;
      }
    </style>
  </defs>
  <path id="современное_оборудование" data-name="современное оборудование" class="cls-1" d="M1250.48,1413.43a3.23,3.23,0,1,0-3.27-3.23A3.257,3.257,0,0,0,1250.48,1413.43Zm0-4.92a1.69,1.69,0,1,1-1.71,1.69A1.705,1.705,0,0,1,1250.48,1408.51Zm20.74,5.84h-1.71v-4.97a0.78,0.78,0,0,0-1.56,0v4.97h-2.59l0.73-.89a0.761,0.761,0,0,0,.14-0.72l-0.37-1.13,0.57-1.05a0.785,0.785,0,0,0,0-.73l-0.57-1.04,0.36-1.1h0.52a0.789,0.789,0,0,0,.6-0.29,0.735,0.735,0,0,0,.16-0.64,17.2,17.2,0,0,0-5.96-9.81,17.555,17.555,0,0,0-9.82-3.88l-0.99-2.62a3.229,3.229,0,0,0-.25-6.45,30.054,30.054,0,0,0-20.84,8.77,2.454,2.454,0,0,0-1.57-.57h-6.63a2.424,2.424,0,0,0-2.44,2.41v14.77a2.424,2.424,0,0,0,2.44,2.41h6.63a2.43,2.43,0,0,0,2.31-1.64h4.06a0.747,0.747,0,0,0,.09.41l0.56,1.05-0.36,1.13a0.784,0.784,0,0,0,.13.72l0.73,0.89h-5.86a0.77,0.77,0,0,0,0,1.54h5.77a0.793,0.793,0,0,0,.23.35l0.92,0.77,0.07,1.18a0.748,0.748,0,0,0,.39.62l1.04,0.59,0.29,1.15a0.756,0.756,0,0,0,.5.54l1.13,0.4,0.5,1.07a0.769,0.769,0,0,0,.59.44l1.18,0.19,0.69,0.97a0.775,0.775,0,0,0,.66.32l1.21-.04,0.86,0.83a0.765,0.765,0,0,0,.71.2l1.17-.26,1,0.66a0.79,0.79,0,0,0,.73.07l1.11-.47,1.1,0.47a0.815,0.815,0,0,0,.31.06,0.832,0.832,0,0,0,.43-0.13l1-.66,1.17,0.26a0.772,0.772,0,0,0,.71-0.2l0.86-.83,1.2,0.04a0.775,0.775,0,0,0,.66-0.32l0.69-.97,1.19-.18a0.792,0.792,0,0,0,.59-0.44l0.5-1.08,1.13-.4a0.748,0.748,0,0,0,.49-0.53l0.3-1.16,1.04-.59a0.8,0.8,0,0,0,.39-0.62l0.07-1.18,0.91-.77a0.916,0.916,0,0,0,.24-0.35h5.76A0.77,0.77,0,1,0,1271.22,1414.35Zm-5.46-8.2h-5.37a10.717,10.717,0,0,0-4-4.79,0.706,0.706,0,0,0-.43-0.13h-10.97a0.749,0.749,0,0,0-.43.13,10.7,10.7,0,0,0-3.99,4.79h-5.37a15.61,15.61,0,0,1,5.21-8.01,15.953,15.953,0,0,1,20.14,0A15.673,15.673,0,0,1,1265.76,1406.15Zm-30.72,2.46h-4.53v-5.02h3.93a17.4,17.4,0,0,0-.99,3.17,0.8,0.8,0,0,0,.16.64,0.793,0.793,0,0,0,.61.29h0.52Zm0.15-6.56h-4.68v-0.49a0.8,0.8,0,0,0,.31-0.27,27.327,27.327,0,0,1,13.3-9.86l0.93,2.46A17.23,17.23,0,0,0,1235.19,1402.05Zm17-14.82a1.705,1.705,0,0,1-1.71,1.69c-0.29,0-.57.01-0.83,0.02l-0.06.01a0.773,0.773,0,0,0-.62.34,0.737,0.737,0,0,0-.08.69l1.16,3.05a17.731,17.731,0,0,0-3.49.44l-1.23-3.25a0.787,0.787,0,0,0-.94-0.47,28.431,28.431,0,0,0-13.88,9.38v-4.52a1.959,1.959,0,0,0-.05-0.48,28.594,28.594,0,0,1,20.02-8.59A1.705,1.705,0,0,1,1252.19,1387.23Zm-24.12,23.02h-0.88v-12.36a0.762,0.762,0,0,0-.77-0.76,0.771,0.771,0,0,0-.78.76v12.36h-4.2a0.873,0.873,0,0,1-.88-0.87v-14.77a0.873,0.873,0,0,1,.88-0.87h4.2v1.69a0.773,0.773,0,0,0,.78.77,0.764,0.764,0,0,0,.77-0.77v-1.69h0.88a0.881,0.881,0,0,1,.89.87v14.77A0.881,0.881,0,0,1,1228.07,1410.25Zm8.96,3.42-0.69-.86,0.34-1.04a0.782,0.782,0,0,0-.06-0.6l-0.53-.97,0.53-.97a0.782,0.782,0,0,0,.06-0.6l-0.31-.94h4.73a0.776,0.776,0,0,0,.73-0.52,9.3,9.3,0,0,1,3.4-4.41h10.49a9.176,9.176,0,0,1,3.4,4.41,0.789,0.789,0,0,0,.74.52h4.73l-0.31.94a0.74,0.74,0,0,0,.06.6l0.52,0.97-0.52.97a0.74,0.74,0,0,0-.06.6l0.34,1.04-0.7.86a0.752,0.752,0,0,0-.16.58l0.01,0.1h-26.58l0.01-.1A0.72,0.72,0,0,0,1237.03,1413.67Zm26.02,2.38a0.765,0.765,0,0,0-.27.54l-0.07,1.1-0.97.54a0.789,0.789,0,0,0-.36.48l-0.27,1.07-1.05.36a0.789,0.789,0,0,0-.45.41l-0.46,1-1.1.17a0.766,0.766,0,0,0-.52.31l-0.64.9-1.11-.03a0.792,0.792,0,0,0-.57.21l-0.79.77-1.09-.24a0.849,0.849,0,0,0-.6.11l-0.92.61-1.03-.43a0.805,0.805,0,0,0-.61,0l-1.02.43-0.93-.61a0.814,0.814,0,0,0-.59-0.11l-1.09.24-0.8-.77a0.768,0.768,0,0,0-.56-0.21l-1.11.03-0.64-.9a0.788,0.788,0,0,0-.52-0.31l-1.1-.17-0.46-1a0.789,0.789,0,0,0-.45-0.41l-1.05-.36-0.27-1.07a0.8,0.8,0,0,0-.37-0.48l-0.96-.55-0.07-1.09a0.765,0.765,0,0,0-.27-0.54l-0.19-.16h25.52Z" transform="translate(-1219 -1384)"/>
</svg>
